# AST/ASF file generated using VICON BodyLanguage
# -----------------------------------------------
:version 1.10
:name VICON
:units
  mass 1.0
  length 0.45
  angle deg
:documentation
   .ast/.asf automatically generated from VICON data using
   VICON BodyBuilder and BodyLanguage model FoxedUp or BRILLIANT.MOD
:root
   order TX TY TZ RX RY RZ
   axis XYZ
   position 0 0 0  
   orientation 0 0 0 
:bonedata
  begin
     id 1 
     name lhipjoint
     direction 0.610259 -0.730986 0.305356 
     length 2.50941 
     axis 0 0 0  XYZ
  end
  begin
     id 2 
     name lfemur
     direction 0.34202 -0.939693 0  
     length 7.48822  
     axis 0 0 20  XYZ
    dof rx ry rz
    limits (-160.0 20.0)
           (-70.0 70.0)
           (-60.0 70.0)
  end
  begin
     id 3 
     name ltibia
     direction 0.34202 -0.939693 0   
     length 7.60141   
     axis 0 0 20   XYZ
    dof rx
    limits (-10.0 170.0)
  end
  begin
     id 4 
     name lfoot
     direction 0.0673488 -0.185039 0.980421   
     length 2.04049   
     axis -90 7.62852e-016 20   XYZ
    dof rx rz
    limits (-45.0 90.0)
           (-70.0 20.0)
  end
  begin
     id 5 
     name ltoes
     direction 1.5356e-011 -4.21729e-011 1   
     length 1.02897   
     axis -90 7.62852e-016 20   XYZ
    dof rx
    limits (-90.0 20.0)
  end
  begin
     id 6 
     name rhipjoint
     direction -0.57612 -0.754205 0.315056   
     length 2.43216  
     axis 0 0 0  XYZ 
  end
  begin
     id 7 
     name rfemur
     direction -0.34202 -0.939693 0   
     length 7.42799   
     axis 0 0 -20   XYZ
    dof rx ry rz
    limits (-160.0 20.0)
           (-70.0 70.0)
           (-70.0 60.0)
  end
  begin
     id 8 
     name rtibia
     direction -0.34202 -0.939693 0   
     length 7.69484   
     axis 0 0 -20   XYZ
    dof rx
    limits (-10.0 170.0)
 end
 begin
     id 9 
     name rfoot
     direction -0.111837 -0.30727 0.945028   
     length 2.15769  
     axis -90 -7.62852e-016 -20   XYZ
    dof rx rz
    limits (-45.0 90.0)
           (-20.0 70.0)
  end
  begin
     id 10 
     name rtoes
     direction -1.53539e-011 -4.21878e-011 1   
     length 1.07391   
     axis -90 -7.62852e-016 -20   XYZ
    dof rx
    limits (-90.0 20.0)
  end
  begin
     id 11 
     name lowerback
     direction 0.00552624 0.990109 -0.140195   
     length 2.12403   
     axis 0 0 0   XYZ
    dof rx ry rz
    limits (-20.0 45.0)
           (-30.0 30.0)
           (-30.0 30.0)
  end
  begin
     id 12 
     name upperback
     direction 0.00361898 0.999976 -0.00584723   
     length 2.13232   
     axis 0 0 0   XYZ
    dof rx ry rz
    limits (-20.0 45.0)
           (-30.0 30.0)
           (-30.0 30.0)
  end
  begin
     id 13 
     name thorax
     direction -0.000331275 0.998253 0.0590847   
     length 2.17688   
     axis 0 0 0   XYZ
    dof rx ry rz
    limits (-20.0 45.0)
           (-30.0 30.0)
           (-30.0 30.0)
  end
  begin
     id 14 
     name lowerneck
     direction -0.0561561 0.979832 0.19177   
     length 1.64159   
     axis 0 0 0   XYZ
    dof rx ry rz
    limits (-20.0 45.0)
           (-30.0 30.0)
           (-30.0 30.0)
  end
  begin
     id 15 
     name upperneck
     direction 0.0827153 0.979385 -0.184293   
     length 1.68939   
     axis 0 0 0   XYZ
    dof rx ry rz
    limits (-20.0 45.0)
           (-30.0 30.0)
           (-30.0 30.0)
  end
  begin
     id 16
     name head
     direction 0.0278583 0.995936 -0.0856488  
     length 1.70207  
     axis 0 0 0   XYZ
    dof rx ry rz
    limits (-20.0 45.0)
           (-30.0 30.0)
           (-30.0 30.0)
  end
  begin
     id 17 
     name lclavicle
     direction 0.950993 0.301131 -0.0702275  
     length 3.41652  
     axis 0 0 0   XYZ
    dof ry rz
    limits (-20.0 10.0)
           (0.0 20.0)
  end
  begin
     id 18 
     name lhumerus
     direction 1 -4.48981e-011 -3.9662e-029   
     length 5.32955   
     axis 180 -30 -90   XYZ
    dof rx ry rz
    limits (-60.0 90.0)
           (-90.0 90.0)
           (-90.0 90.0)
  end
  begin
     id 19
     name lradius
     direction 1 -4.48925e-011 -9.0549e-027   
     length 3.69232   
     axis 180 -30 -90   XYZ
    dof rx
    limits (-10.0 170.0)
  end
  begin
     id 20
     name lwrist
     direction 1 -4.49007e-011 -1.49005e-026   
     length 1.84616   
     axis 9.0955e-015 90 90   XYZ
    dof ry
    limits (-180.0 0.0)
 end
  begin
     id 21 
     name lhand
     direction 1 -4.49016e-011 -2.98023e-026   
     length 0.536598   
     axis 1.90115e-014 90 90   XYZ
    dof rx rz
    limits (-90.0 90.0)
           (-45.0 45.0)
  end
  begin
     id 22 
     name lfingers
     direction 1 -4.48924e-011 -5.9578e-026   
     length 0.432619   
     axis 3.80223e-014 90 90   XYZ
    dof rx
    limits (0.0 90.0)
  end
  begin
     id 23
     name lthumb
     direction 0.707107 -6.34947e-011 0.707107   
     length 0.621157   
     axis -90 45 -3.84942e-014   XYZ
    dof rx rz
    limits (-45.0 45.0)
           (-45.0 45.0)
  end
  begin
     id 24 
     name rclavicle
     direction -0.955495 0.276497 -0.102848   
     length 3.36357  
     axis 0 0 0   XYZ 
    dof ry rz
    limits (-10.0 20.0)
           (-20.0 0.0)
  end
  begin
     id 25 
     name rhumerus
     direction -1 -4.48961e-011 3.30983e-027  
     length 5.23431   
     axis 180 30 90   XYZ
    dof rx ry rz
    limits (-90.0 60.0)
           (-90.0 90.0)
           (-90.0 90.0)
  end
  begin
     id 26 
     name rradius
     direction -1 -4.48965e-011 -6.63263e-027   
     length 3.55301   
     axis 180 30 90   XYZ
    dof rx
    limits (-10.0 170.0)
  end
  begin
     id 27 
     name rwrist
     direction -1 -4.48942e-011 -1.48958e-026   
     length 1.77651   
     axis 9.0955e-015 -90 -90   XYZ
    dof ry
    limits (-180.0 0.0)
  end
  begin
     id 28
     name rhand
     direction -1 -4.48977e-011 -2.97966e-026   
     length 0.772522   
     axis 1.90115e-014 -90 -90   XYZ
    dof rx rz
    limits (-90.0 90.0)
           (-45.0 45.0)
  end
  begin
     id 29
     name rfingers
     direction -1 -4.49135e-011 -5.96389e-026   
     length 0.622827   
     axis 3.80223e-014 -90 -90   XYZ
    dof rx
    limits (0.0 90.0)
  end
  begin
     id 30
     name rthumb
     direction -0.707107 -6.34969e-011 0.707107   
     length 0.894259   
     axis -90 -45 3.84942e-014   XYZ
    dof rx rz
    limits (-45.0 45.0)
           (-45.0 45.0)
  end
:hierarchy
  begin
    root lhipjoint rhipjoint lowerback
    lhipjoint lfemur
    lfemur ltibia
    ltibia lfoot
    lfoot ltoes
    rhipjoint rfemur
    rfemur rtibia
    rtibia rfoot
    rfoot rtoes
    lowerback upperback
    upperback thorax
    thorax lowerneck lclavicle rclavicle
    lowerneck upperneck
    upperneck head
    lclavicle lhumerus
    lhumerus lradius
    lradius lwrist
    lwrist lhand lthumb
    lhand lfingers
    rclavicle rhumerus
    rhumerus rradius
    rradius rwrist
    rwrist rhand rthumb
    rhand rfingers
  end

#!OML:ASF F:\VICON\USERDATA\INSTALL\rory3\rory3.ASF
:FULLY-SPECIFIED
:DEGREES
1
root 12.3273 17.8593 -11.0968 2.27246 3.61437 -1.38707
lowerback 9.381 0.467781 1.29566
upperback 0.534582 0.815291 1.11697
thorax -4.70498 0.387047 0.324245
lowerneck -18.5079 -5.77254 -12.1343
upperneck 33.2998 -7.03954 7.60895
head 15.5964 -3.46976 4.01433
rclavicle 7.87684e-015 -2.08724e-014
rhumerus -33.2186 -12.7688 -80.7892
rradius 29.1219
rwrist 7.16335
rhand -14.6886 9.92949
rfingers 7.12502
rthumb 11.4651 -19.737
lclavicle 7.87684e-015 -2.08724e-014
lhumerus -38.1895 8.60679 81.5553
lradius 38.5248
lwrist -1.71002
lhand -18.1136 29.047
lfingers 7.12502
lthumb 8.16066 58.8694
rfemur -7.21003 -2.23892 27.9987
rtibia 26.7029
rfoot -18.1944 -3.90287
rtoes 5.82132
lfemur -15.7281 -4.06841 -16.8087
ltibia 40.5645
lfoot -12.5808 0.833628
ltoes -12.6063
2
root 12.3139 17.8525 -11.0891 2.05999 3.58727 -1.56902
lowerback 9.52994 0.538612 1.39729
upperback 0.700853 0.925144 1.2117
thorax -4.6145 0.440971 0.350272
lowerneck -18.5137 -5.83821 -12.2299
upperneck 33.1288 -7.11544 7.6749
head 15.5349 -3.50155 4.03802
rclavicle 1.59028e-015 -2.38542e-015
rhumerus -32.9171 -12.8398 -80.7658
rradius 29.0043
rwrist 7.20084
rhand -14.7115 10.1452
rfingers 7.12502
rthumb 11.443 -19.5225
lclavicle 1.59028e-015 -2.38542e-015
lhumerus -38.0294 8.39761 81.7061
lradius 38.7506
lwrist -1.63569
lhand -18.3362 28.4548
lfingers 7.12502
lthumb 7.94584 58.2855
rfemur -6.88879 -2.26392 28.2274
rtibia 26.5577
rfoot -18.209 -3.78652
rtoes 6.38196
lfemur -16.2696 -3.89151 -16.6023
ltibia 41.7492
lfoot -12.2825 0.979781
ltoes -13.3045
3
root 12.3013 17.8504 -11.0811 1.8821 3.52124 -1.70617
lowerback 9.73316 0.600285 1.4587
upperback 0.777454 1.02078 1.28895
thorax -4.64831 0.487659 0.381505
lowerneck -18.4602 -5.88048 -12.3154
upperneck 33.0132 -7.17415 7.74706
head 15.4837 -3.52643 4.0689
rclavicle -1.78906e-015 -1.17283e-014
rhumerus -32.7729 -12.6369 -80.8219
rradius 29.0137
rwrist 7.02931
rhand -14.831 10.6515
rfingers 7.12502
rthumb 11.3278 -19.0226
lclavicle -1.78906e-015 -1.17283e-014
lhumerus -38.0371 8.27741 81.7644
lradius 38.9957
lwrist -1.6207
lhand -18.124 27.7945
lfingers 7.12502
lthumb 8.15064 57.6173
rfemur -6.56318 -2.36377 28.4012
rtibia 26.2954
rfoot -18.1019 -3.64501
rtoes 6.31912
lfemur -16.8242 -3.63833 -16.4614
ltibia 42.7796
lfoot -12.1174 1.15378
ltoes -14.7506
4
root 12.291 17.8527 -11.0667 1.73704 3.50833 -1.8003
lowerback 9.8894 0.627774 1.54384
upperback 0.768005 1.07183 1.31201
thorax -4.74433 0.510734 0.348873
lowerneck -18.1731 -5.86498 -12.3184
upperneck 32.9015 -7.19926 7.79821
head 15.3697 -3.5349 4.08584
rclavicle 8.59744e-015 -5.96354e-016
rhumerus -32.785 -12.3609 -80.9515
rradius 29.0811
rwrist 6.83961
rhand -14.8588 10.7806
rfingers 7.12502
rthumb 11.3009 -18.8949
lclavicle 8.59744e-015 -5.96354e-016
lhumerus -38.1169 8.11738 81.7189
lradius 39.1163
lwrist -1.53975
lhand -18.0254 27.5722
lfingers 7.12502
lthumb 8.24585 57.3913
rfemur -6.21173 -2.52778 28.5188
rtibia 26.0197
rfoot -18.0567 -3.49798
rtoes 5.82477
lfemur -17.384 -3.44788 -16.3875
ltibia 43.7115
lfoot -12.1333 1.19434
ltoes -15.455
5
root 12.2814 17.854 -11.0492 1.62208 3.43446 -1.8543
lowerback 9.94788 0.684973 1.61432
upperback 0.828775 1.15576 1.31157
thorax -4.71176 0.551072 0.296828
lowerneck -18.0891 -5.87041 -12.3123
upperneck 32.8471 -7.2344 7.847
head 15.3313 -3.54311 4.09811
rclavicle 2.87244e-014 8.54774e-015
rhumerus -32.6782 -12.2487 -81.0648
rradius 29.122
rwrist 6.58889
rhand -14.6961 10.7064
rfingers 7.12502
rthumb 11.4579 -18.9605
lclavicle 2.87244e-014 8.54774e-015
lhumerus -38.0723 7.95544 81.7072
lradius 39.1999
lwrist -1.50158
lhand -18.3398 27.7046
lfingers 7.12502
lthumb 7.94236 57.5354
rfemur -5.85856 -2.66223 28.5791
rtibia 25.6975
rfoot -18.0758 -3.34442
rtoes 5.16761
lfemur -17.8973 -3.32399 -16.3625
ltibia 44.491
lfoot -12.2974 1.06831
ltoes -15.2595
6
root 12.2691 17.8571 -11.0328 1.57393 3.32949 -1.90225
lowerback 9.96868 0.776048 1.61448
upperback 0.902556 1.27713 1.34125
thorax -4.6463 0.611899 0.31111
lowerneck -18.196 -5.94606 -12.348
upperneck 32.8717 -7.32804 7.86315
head 15.3843 -3.58248 4.09265
rclavicle -6.4605e-015 -2.26615e-014
rhumerus -32.4815 -12.2083 -81.1542
rradius 29.1673
rwrist 6.42175
rhand -14.8293 11.063
rfingers 7.12502
rthumb 11.3294 -18.611
lclavicle -6.4605e-015 -2.26615e-014
lhumerus -37.9946 7.83541 81.7596
lradius 39.3188
lwrist -1.55009
lhand -18.4455 28.1172
lfingers 7.12502
lthumb 7.84034 57.9518
rfemur -5.58315 -2.68783 28.6433
rtibia 25.3501
rfoot -18.0216 -3.26101
rtoes 5.03156
lfemur -18.4599 -3.21819 -16.3178
ltibia 45.1261
lfoot -12.4204 0.61272
ltoes -13.6137
7
root 12.2571 17.8598 -11.0171 1.50686 3.20474 -1.98158
lowerback 10.0672 0.860696 1.6195
upperback 0.954831 1.39337 1.37902
thorax -4.64697 0.669624 0.330452
lowerneck -18.1863 -6.01858 -12.4156
upperneck 32.8114 -7.43612 7.93356
head 15.3765 -3.62624 4.11148
rclavicle -1.41634e-014 -2.5842e-015
rhumerus -32.2747 -11.9922 -81.3164
rradius 29.1986
rwrist 6.28005
rhand -15.1781 11.0208
rfingers 7.12502
rthumb 10.993 -18.6714
lclavicle -1.41634e-014 -2.5842e-015
lhumerus -38.047 7.68641 81.7695
lradius 39.5197
lwrist -1.55042
lhand -18.4592 28.7421
lfingers 7.12502
lthumb 7.82713 58.5772
rfemur -5.29829 -2.70968 28.7527
rtibia 25.0029
rfoot -17.928 -3.20607
rtoes 4.621
lfemur -19.0083 -2.95984 -16.2282
ltibia 45.6215
lfoot -12.4399 -0.0449458
ltoes -11.4817
8
root 12.2484 17.8605 -10.9983 1.38104 3.03626 -2.11971
lowerback 10.1944 0.944246 1.73677
upperback 1.03706 1.52085 1.41827
thorax -4.62944 0.730944 0.286233
lowerneck -18.1753 -6.07192 -12.4687
upperneck 32.6859 -7.52008 8.01422
head 15.3337 -3.65581 4.13444
rclavicle 8.10048e-015 1.39149e-015
rhumerus -32.0186 -11.6462 -81.5145
rradius 29.1913
rwrist 6.00267
rhand -15.4044 10.6113
rfingers 7.12502
rthumb 10.7747 -19.0923
lclavicle 8.10048e-015 1.39149e-015
lhumerus -38.081 7.56542 81.7605
lradius 39.687
lwrist -1.47771
lhand -18.4745 29.1524
lfingers 7.12502
lthumb 7.81237 58.9881
rfemur -4.9645 -2.78628 28.9112
rtibia 24.7109
rfoot -17.877 -3.07265
rtoes 4.0879
lfemur -19.4552 -2.61007 -16.1028
ltibia 45.9718
lfoot -12.4867 -0.422065
ltoes -11.4541
9
root 12.2432 17.8604 -10.9777 1.266 2.88565 -2.22423
lowerback 10.2871 1.03695 1.8704
upperback 1.09867 1.66089 1.43499
thorax -4.61261 0.797968 0.207855
lowerneck -18.2261 -6.10762 -12.3841
upperneck 32.6519 -7.58411 7.98667
head 15.3321 -3.67375 4.09317
rclavicle -2.49475e-014 -2.18663e-014
rhumerus -31.8655 -11.5521 -81.6002
rradius 29.1666
rwrist 5.83616
rhand -15.3087 10.3878
rfingers 7.12502
rthumb 10.867 -19.311
lclavicle -2.49475e-014 -2.18663e-014
lhumerus -38.1293 7.2988 81.7915
lradius 39.8438
lwrist -1.21614
lhand -18.6418 29.0719
lfingers 7.12502
lthumb 7.65094 58.9135
rfemur -4.64685 -2.82426 29.0126
rtibia 24.4859
rfoot -17.8698 -2.93298
rtoes 3.87021
lfemur -19.8578 -2.37744 -16.0326
ltibia 46.169
lfoot -12.5957 -0.527662
ltoes -13.2812
10
root 12.2373 17.8595 -10.9563 1.21046 2.76578 -2.19276
lowerback 10.3166 1.11864 1.86857
upperback 1.139 1.7672 1.40048
thorax -4.58493 0.850528 0.157905
lowerneck -18.2402 -6.11602 -12.2964
upperneck 32.625 -7.61831 7.97239
head 15.3215 -3.678 4.06385
rclavicle -2.98177e-016 -4.17448e-015
rhumerus -31.7679 -11.5544 -81.6742
rradius 29.171
rwrist 5.71537
rhand -15.0448 10.1052
rfingers 7.12502
rthumb 11.1216 -19.5801
lclavicle -2.98177e-016 -4.17448e-015
lhumerus -38.2088 7.08075 81.7127
lradius 39.9445
lwrist -0.955519
lhand -18.6317 28.2199
lfingers 7.12502
lthumb 7.66064 58.0611
rfemur -4.39958 -2.82663 28.9658
rtibia 24.3047
rfoot -17.8907 -2.7648
rtoes 4.31278
lfemur -20.28 -2.13843 -16.1024
ltibia 46.1948
lfoot -12.6954 -0.605207
ltoes -14.7177
11
root 12.2296 17.8595 -10.9305 1.26664 2.68181 -2.07869
lowerback 10.2097 1.19134 1.789
upperback 1.14119 1.84808 1.32851
thorax -4.52232 0.891901 0.118877
lowerneck -18.1826 -6.14076 -12.3279
upperneck 32.5875 -7.6833 8.06638
head 15.3065 -3.6975 4.09676
rclavicle 7.15625e-015 1.39149e-015
rhumerus -31.7269 -11.455 -81.8113
rradius 29.2802
rwrist 5.59687
rhand -14.8062 9.73874
rfingers 7.12502
rthumb 11.3517 -19.934
lclavicle 7.15625e-015 1.39149e-015
lhumerus -38.2702 7.08107 81.469
lradius 39.8535
lwrist -0.920261
lhand -18.1663 26.7486
lfingers 7.12502
lthumb 8.10987 56.573
rfemur -4.27045 -2.94449 28.8339
rtibia 24.1332
rfoot -17.9375 -2.54694
rtoes 4.538
lfemur -20.7666 -1.893 -16.254
ltibia 46.0528
lfoot -12.715 -0.783954
ltoes -14.7488
12
root 12.2218 17.8623 -10.904 1.34884 2.59142 -1.96278
lowerback 10.0923 1.27149 1.71163
upperback 1.13091 1.9392 1.25235
thorax -4.46663 0.938162 0.0732529
lowerneck -18.1961 -6.17155 -12.3187
upperneck 32.5802 -7.74715 8.11295
head 15.3173 -3.71643 4.10241
rclavicle -2.27608e-014 -6.16232e-015
rhumerus -31.6467 -11.2655 -81.981
rradius 29.2978
rwrist 5.35824
rhand -14.6177 9.76667
rfingers 7.12502
rthumb 11.5335 -19.896
lclavicle -2.27608e-014 -6.16232e-015
lhumerus -38.3529 7.11953 81.2364
lradius 39.787
lwrist -1.06411
lhand -17.7047 26.2103
lfingers 7.12502
lthumb 8.5553 56.017
rfemur -4.16441 -3.03276 28.7179
rtibia 23.9394
rfoot -17.9466 -2.46202
rtoes 4.17367
lfemur -21.2391 -1.69865 -16.4077
ltibia 45.7665
lfoot -12.6956 -0.98898
ltoes -14.3951
13
root 12.217 17.8674 -10.8782 1.41207 2.49158 -1.93276
lowerback 10.0737 1.34585 1.75346
upperback 1.09585 2.04025 1.20005
thorax -4.48849 0.986553 -0.0183833
lowerneck -18.225 -6.18783 -12.3079
upperneck 32.5652 -7.79464 8.17935
head 15.3266 -3.72516 4.11918
rclavicle 1.19768e-014 -1.35174e-014
rhumerus -31.4784 -11.1787 -82.107
rradius 29.1358
rwrist 5.10958
rhand -14.4046 10.1631
rfingers 7.12502
rthumb 11.739 -19.4879
lclavicle 1.19768e-014 -1.35174e-014
lhumerus -38.6099 7.00521 81.1239
lradius 39.9733
lwrist -1.08869
lhand -17.7873 26.4323
lfingers 7.12502
lthumb 8.47564 56.2422
rfemur -4.01043 -3.14065 28.6774
rtibia 23.6911
rfoot -17.8772 -2.29913
rtoes 4.00052
lfemur -21.6733 -1.58304 -16.4695
ltibia 45.3763
lfoot -12.6079 -1.04445
ltoes -14.1979
14
root 12.214 17.8738 -10.8504 1.3974 2.38913 -1.90431
lowerback 10.1399 1.42412 1.79562
upperback 1.08723 2.14894 1.16352
thorax -4.53019 1.03866 -0.0967909
lowerneck -18.2151 -6.23454 -12.3633
upperneck 32.5138 -7.87171 8.25895
head 15.3188 -3.75338 4.14629
rclavicle 9.83984e-015 3.97569e-015
rhumerus -31.3629 -11.0313 -82.2716
rradius 29.2477
rwrist 4.91169
rhand -14.6806 10.1613
rfingers 7.12502
rthumb 11.4728 -19.5048
lclavicle 9.83984e-015 3.97569e-015
lhumerus -38.895 6.88659 81.0492
lradius 40.1646
lwrist -0.996313
lhand -18.0868 26.4895
lfingers 7.12502
lthumb 8.1866 56.3109
rfemur -3.7502 -3.22742 28.6267
rtibia 23.4122
rfoot -17.84 -2.15272
rtoes 3.66409
lfemur -22.0044 -1.51338 -16.5277
ltibia 44.889
lfoot -12.4681 -0.981082
ltoes -14.127
